<svg width="18" height="18" viewBox="0 0 18 18" fill="none" xmlns="http://www.w3.org/2000/svg">
<path d="M16.7971 4.50023L14.5171 3.48601L13.502 1.20516L11.0207 1.46429L9.00195 0.000366211L6.98208 1.46429L4.50195 1.20516L3.48755 3.48498L1.20664 4.50023L1.46592 6.98146L0.00195312 9.0001L1.46592 11.0199L1.20664 13.5L3.48667 14.5142L4.50195 16.795L6.98325 16.5359L9.00195 17.9998L11.0218 16.5359L13.502 16.795L14.5162 14.5151L16.7971 13.5L16.5378 11.0187L18.002 9.0001L16.5378 6.98029L16.7971 4.50023ZM7.20195 12.6L4.65488 10.053L5.50391 9.20708L7.20195 10.902L12.2929 5.81123L13.1419 6.66008L7.20195 12.6Z" fill="#14BFF4"/>
</svg>
